[IMG]http://yuq.me/users/18/139/bC8iE6FxYD.png[/IMG]

General
Complete name                            : Anna Kendrick - Cups [Pitch Perfect's When I'm Gone] [Director's Cut] 720p [Sbyky].mp4
Format                                   : MPEG-4
Format profile                           : Base Media / Version 2
Codec ID                                 : mp42
File size                                : 60.3 MiB
Duration                                 : 4mn 21s
Overall bit rate mode                    : Variable
Overall bit rate                         : 1 931 Kbps
Encoded date                             : UTC 2013-05-01 15:40:51
Tagged date                              : UTC 2013-05-01 15:40:51

Video
ID                                       : 1
Format                                   : AVC
Format/Info                              : Advanced Video Codec
Format profile                           : High@L3.1
Format settings, CABAC                   : Yes
Format settings, ReFrames                : 1 frame
Codec ID                                 : avc1
Codec ID/Info                            : Advanced Video Coding
Duration                                 : 4mn 21s
Bit rate                                 : 1 737 Kbps
Maximum bit rate                         : 3 831 Kbps
Width                                    : 1 280 pixels
Height                                   : 720 pixels
Display aspect ratio                     : 16:9
Frame rate mode                          : Constant
Frame rate                               : 23.976 fps
Color space                              : YUV
Chroma subsampling                       : 4:2:0
Bit depth                                : 8 bits
Scan type                                : Progressive
Bits/(Pixel*Frame)                       : 0.079
Stream size                              : 54.2 MiB (90%)
Tagged date                              : UTC 2013-05-01 15:40:54

Audio
ID                                       : 2
Format                                   : AAC
Format/Info                              : Advanced Audio Codec
Format profile                           : LC
Codec ID                                 : 40
Duration                                 : 4mn 21s
Bit rate mode                            : Variable
Bit rate                                 : 192 Kbps
Maximum bit rate                         : 203 Kbps
Channel(s)                               : 2 channels
Channel positions                        : Front: L R
Sampling rate                            : 44.1 KHz
Compression mode                         : Lossy
Stream size                              : 5.99 MiB (10%)
Title                                    : IsoMedia File Produced by Google, 5-11-2011
Encoded date                             : UTC 2013-05-01 15:40:53
Tagged date                              : UTC 2013-05-01 15:40:54

Shared By Sbyky
[IMG]http://www.shotpix.com/images/76014917432015785852.gif[/IMG]
[IMG]http://www.shotpix.com/images/54100788659511547411.gif[/IMG]